<svg id="Capa_1" enable-background="new 0 0 512 512" height="512" viewBox="0 0 512 512" width="512" xmlns="http://www.w3.org/2000/svg"><g><path d="m144.046 399.448h-12.26c-22.896 0-41.456 18.561-41.456 41.456v71.096h248.66v-71.096c0-22.896-18.561-41.456-41.456-41.456z" fill="#c4e2ff"/><path d="m297.535 399.448h-28.768c22.895 0 41.456 18.561 41.456 41.456v71.096h28.768v-71.096c0-22.895-18.561-41.456-41.456-41.456z" fill="#b3dafe"/><path d="m176.252 319.613v62.261l38.267 25.511 38.267-25.511v-62.261z" fill="#ffcebf"/><path d="m306.877 229.132c-.428 0-.852.015-1.276.032-7.309-43.704-45.302-77.014-91.082-77.014-45.78 0-83.773 33.31-91.082 77.014-.424-.017-.848-.032-1.276-.032-17.321 0-31.362 14.041-31.362 31.361s14.041 31.362 31.362 31.362c.428 0 .852-.015 1.276-.032 7.309 43.704 45.302 77.014 91.082 77.014 45.78 0 83.773-33.31 91.082-77.014.424.017.848.032 1.276.032 17.321 0 31.362-14.041 31.362-31.362s-14.042-31.361-31.362-31.361z" fill="#ffcebf"/><g><g><path d="m169.438 283.314c-4.204 0-7.611-3.408-7.611-7.612v-17.007c0-4.204 3.407-7.611 7.611-7.611s7.611 3.408 7.611 7.611v17.007c0 4.204-3.407 7.612-7.611 7.612z" fill="#384949"/></g><g><path d="m259.599 283.314c-4.204 0-7.611-3.408-7.611-7.612v-17.007c0-4.204 3.407-7.611 7.611-7.611s7.612 3.408 7.612 7.611v17.007c0 4.204-3.407 7.612-7.612 7.612z" fill="#384949"/></g></g><g><path d="m214.518 331.798c-15.013 0-27.226-12.214-27.226-27.226 0-4.204 3.407-7.611 7.611-7.611s7.611 3.408 7.611 7.611c0 6.618 5.385 12.003 12.003 12.003s12.003-5.385 12.003-12.003c0-4.204 3.407-7.611 7.611-7.611s7.611 3.408 7.611 7.611c.002 15.012-12.211 27.226-27.224 27.226z" fill="#ffb09e"/></g><path d="m214.519 407.385-19.615 20.479 7.109 27.86h25.011l7.109-27.86z" fill="#fd544d"/><path d="m202.013 455.724-11.054 56.276h47.117l-11.055-56.275h-25.008z" fill="#fd544d"/><path d="m306.877 229.132c-.428 0-.852.015-1.276.032-7.309-43.704-45.302-77.014-91.082-77.014-4.394 0-8.715.313-12.945.906 39.843 5.59 71.529 36.599 78.137 76.108.424-.017.848-.032 1.276-.032 17.321 0 31.362 14.041 31.362 31.361 0 17.321-14.041 31.362-31.362 31.362-.428 0-.852-.015-1.276-.032-6.608 39.509-38.293 70.517-78.137 76.107 4.231.594 8.551.906 12.945.906 45.78 0 83.773-33.31 91.082-77.014.424.017.848.032 1.276.032 17.321 0 31.362-14.041 31.362-31.362-.001-17.319-14.042-31.36-31.362-31.36z" fill="#ffbfb1"/><path d="m277.77 121.676c-6.905-11.072-19.186-18.444-33.196-18.444h-75.125c-38.277 0-69.306 31.029-69.306 69.306v56.626h131.183c13.422 0 25.66-5.057 34.925-13.362 6.478 8.139 16.463 13.362 27.674 13.362h34.971v-55.639c-.001-28.397-22.824-51.45-51.126-51.849z" fill="#c4573a"/><g><path d="m277.77 121.676c-6.905-11.072-19.186-18.444-33.196-18.444h-28.768c14.009 0 26.291 7.372 33.196 18.444 28.302.399 51.125 23.452 51.125 51.848v55.639h28.768v-55.639c0-28.396-22.823-51.449-51.125-51.848z" fill="#a74b30"/></g><g><path d="m281.316 304.572h-11.546c-4.204 0-7.611-3.408-7.611-7.611s3.408-7.612 7.611-7.612h11.546c4.204 0 7.612 3.408 7.612 7.612s-3.408 7.611-7.612 7.611z" fill="#ffb09e"/></g><g><path d="m159.266 304.572h-11.546c-4.204 0-7.611-3.408-7.611-7.611s3.408-7.612 7.611-7.612h11.546c4.204 0 7.611 3.408 7.611 7.612s-3.408 7.611-7.611 7.611z" fill="#ffb09e"/></g><g><path d="m328.645 32.524c-4.204 0-7.611-3.408-7.611-7.611v-17.302c0-4.204 3.407-7.611 7.611-7.611s7.612 3.408 7.612 7.611v17.301c0 4.204-3.408 7.612-7.612 7.612z" fill="#fea95c"/></g><g><path d="m288.043 44.043c-1.947 0-3.896-.743-5.383-2.229l-12.234-12.234c-2.972-2.972-2.972-7.792 0-10.764 2.973-2.972 7.792-2.972 10.765 0l12.234 12.234c2.972 2.972 2.972 7.792 0 10.764-1.486 1.485-3.434 2.229-5.382 2.229z" fill="#fea95c"/></g><g><path d="m369.247 44.043c-1.947 0-3.896-.743-5.383-2.229-2.972-2.972-2.972-7.792 0-10.764l12.234-12.234c2.973-2.972 7.792-2.972 10.765 0 2.972 2.972 2.972 7.792 0 10.764l-12.234 12.234c-1.486 1.485-3.435 2.229-5.382 2.229z" fill="#fea95c"/></g><g><path d="m414.058 78.247h-17.301c-4.204 0-7.611-3.408-7.611-7.611s3.407-7.611 7.611-7.611h17.301c4.204 0 7.611 3.408 7.611 7.611s-3.406 7.611-7.611 7.611z" fill="#fea95c"/></g><g><path d="m260.533 78.247h-17.301c-4.204 0-7.611-3.408-7.611-7.611s3.407-7.611 7.611-7.611h17.301c4.204 0 7.611 3.408 7.611 7.611s-3.407 7.611-7.611 7.611z" fill="#fea95c"/></g><path d="m356.852 127.928c8.739-8.984 13.946-21.419 13.366-35.072-1.025-24.145-20.489-43.808-44.521-45.215-24.789 1.522-44.424 22.104-44.424 47.276 0 12.842 5.115 24.485 13.415 33.014 5.938 6.103 10.43 13.461 13.141 21.533v.002h35.875c2.714-8.074 7.209-15.432 13.148-21.538z" fill="#fdb97e"/><path d="m325.768 187.106c10.13-1.404 17.937-10.076 17.937-20.592v-17.047h-35.875v17.047c0 10.516 7.808 19.188 17.938 20.592z" fill="#537983"/><path d="m375.972 92.856c-1.038-24.462-21-44.337-45.467-45.274-4.121-.158-8.128.217-11.964 1.051 20.598 4.493 36.373 22.552 37.293 44.223.579 13.653-4.627 26.088-13.366 35.072-5.94 6.106-10.435 13.464-13.147 21.539h20.138c2.713-8.075 7.208-15.433 13.147-21.539 8.739-8.984 13.946-21.419 13.366-35.072z" fill="#fea95c"/><path d="m329.321 149.467v17.047c0 7.841-4.34 14.663-10.745 18.212 2.985 1.654 6.415 2.602 10.069 2.602 11.495 0 20.814-9.319 20.814-20.814v-17.047z" fill="#3e5959"/><path d="m176.251 381.874-32.347 17.574 45.637 34.016 24.978-26.079z" fill="#b3dafe"/><path d="m252.786 381.874 32.347 17.574-45.637 34.016-24.977-26.079z" fill="#b3dafe"/><path d="m252.786 381.874-11.626 7.75 18.082 9.824-30.53 22.756 10.784 11.26 45.637-34.016z" fill="#8ac9fe"/></g></svg>