<svg id="Capa_1" enable-background="new 0 0 512.99 512.99" height="512" viewBox="0 0 512.99 512.99" width="512" xmlns="http://www.w3.org/2000/svg"><g><g><path d="m36.584 403.655h-8.35c-15.593 0-28.234 12.641-28.234 28.234v48.421h169.356v-48.421c0-15.594-12.641-28.235-28.235-28.235h-104.537z" fill="#c4e2ff"/><path d="m141.121 403.655h-26.333c15.594 0 28.235 12.641 28.235 28.235v48.421h26.333v-48.421c0-15.594-12.641-28.235-28.235-28.235z" fill="#b3dafe"/><path d="m58.519 349.281v42.404l26.062 17.375 26.063-17.375v-42.404z" fill="#ffcebf"/><path d="m147.484 287.657c-.291 0-.58.01-.869.022-4.978-29.766-30.854-52.452-62.033-52.452-31.179 0-57.055 22.687-62.033 52.452-.289-.012-.578-.022-.869-.022-11.797 0-21.36 9.563-21.36 21.359 0 11.797 9.563 21.36 21.36 21.36.291 0 .58-.01.869-.022 4.978 29.766 30.854 52.452 62.033 52.452 31.179 0 57.055-22.686 62.033-52.452.289.012.578.022.869.022 11.797 0 21.36-9.563 21.36-21.36-.001-11.796-9.564-21.359-21.36-21.359z" fill="#ffcebf"/><g><g><path d="m53.878 326.465c-4.275 0-7.741-3.466-7.741-7.741v-10.28c0-4.275 3.466-7.741 7.741-7.741s7.741 3.466 7.741 7.741v10.28c0 4.275-3.466 7.741-7.741 7.741z" fill="#444"/></g><g><path d="m115.285 326.465c-4.275 0-7.741-3.466-7.741-7.741v-10.28c0-4.275 3.466-7.741 7.741-7.741s7.741 3.466 7.741 7.741v10.28c0 4.275-3.466 7.741-7.741 7.741z" fill="#444"/></g></g><path d="m58.519 391.685-22.031 11.97 31.082 23.167 17.011-17.762z" fill="#b3dafe"/><path d="m110.644 391.685 22.031 11.97-31.082 23.167-17.012-17.762z" fill="#b3dafe"/><path d="m84.581 409.06-13.359 13.948 4.842 18.975h17.034l4.842-18.975z" fill="#fd544d"/><path d="m76.064 441.983-7.529 38.328h32.09l-7.529-38.328z" fill="#fd544d"/><path d="m147.484 287.657c-.292 0-.58.01-.869.022-4.978-29.765-30.854-52.452-62.033-52.452-3.489 0-6.906.299-10.24.845 26.463 4.335 47.372 25.172 51.793 51.607.289-.012.578-.022.869-.022 11.797 0 21.36 9.563 21.36 21.359s-9.563 21.36-21.36 21.36c-.291 0-.58-.01-.869-.022-4.421 26.435-25.33 47.272-51.793 51.607 3.334.546 6.752.845 10.24.845 31.179 0 57.055-22.686 62.033-52.452.289.012.578.022.869.022 11.797 0 21.36-9.563 21.36-21.36-.001-11.796-9.564-21.359-21.36-21.359z" fill="#ffbfb1"/><path d="m110.644 391.685-10.51 7.007 9.134 4.963-17.425 12.987 9.75 10.18 31.082-23.167z" fill="#8ac9fe"/><path d="m127.66 214.472c-4.703-7.54-13.067-12.561-22.609-12.561h-51.166c-26.069 0-47.202 21.133-47.202 47.202v38.566h89.345c9.141 0 17.476-3.444 23.786-9.1 4.412 5.543 11.213 9.1 18.848 9.1h23.818v-37.894c0-19.341-15.545-35.042-34.82-35.313z" fill="#c4573a"/><g><path d="m127.66 214.472c-4.703-7.54-13.067-12.561-22.609-12.561h-26.332c9.541 0 17.906 5.021 22.609 12.561 19.275.271 34.82 15.972 34.82 35.313v37.757c.827.086 1.665.137 2.515.137h23.818v-37.894c-.001-19.341-15.546-35.042-34.821-35.313z" fill="#a74b30"/></g><g><path d="m48.008 343.002h-6.852c-3.242 0-5.87-2.628-5.87-5.87s2.628-5.87 5.87-5.87h6.852c3.242 0 5.87 2.628 5.87 5.87s-2.628 5.87-5.87 5.87z" fill="#ffb09e"/></g><g><path d="m128.007 343.002h-6.852c-3.242 0-5.87-2.628-5.87-5.87s2.628-5.87 5.87-5.87h6.852c3.242 0 5.87 2.628 5.87 5.87s-2.628 5.87-5.87 5.87z" fill="#ffb09e"/></g></g><g><path d="m380.218 403.655h-8.35c-15.594 0-28.235 12.641-28.235 28.235v48.421h169.357v-48.421c0-15.594-12.641-28.235-28.235-28.235z" fill="#c4e2ff"/><path d="m484.755 403.655h-29.258c15.593 0 28.235 12.641 28.235 28.235v48.421h29.258v-48.421c0-15.594-12.641-28.235-28.235-28.235z" fill="#b3dafe"/><path d="m402.153 349.281v42.404l26.062 17.375 26.063-17.375v-42.404z" fill="#ffcebf"/><path d="m374.135 287.679h-23.818v-37.894c0-19.51 15.816-35.325 35.325-35.325h12.575v49.137c0 13.3-10.782 24.082-24.082 24.082z" fill="#c4573a"/><path d="m491.118 287.657c-.291 0-.58.01-.869.022-4.978-29.766-30.854-52.452-62.033-52.452-31.179 0-57.055 22.687-62.033 52.452-.289-.012-.578-.022-.869-.022-11.797 0-21.36 9.563-21.36 21.359 0 11.797 9.563 21.36 21.36 21.36.291 0 .58-.01.869-.022 4.978 29.766 30.854 52.452 62.033 52.452 31.179 0 57.055-22.686 62.033-52.452.289.012.578.022.869.022 11.797 0 21.36-9.563 21.36-21.36 0-11.796-9.563-21.359-21.36-21.359z" fill="#ffcebf"/><g><g><path d="m397.512 326.465c-4.276 0-7.741-3.466-7.741-7.741v-10.28c0-4.275 3.465-7.741 7.741-7.741s7.741 3.466 7.741 7.741v10.28c.001 4.275-3.465 7.741-7.741 7.741z" fill="#444"/></g><g><path d="m458.919 326.465c-4.276 0-7.741-3.466-7.741-7.741v-10.28c0-4.275 3.465-7.741 7.741-7.741s7.741 3.466 7.741 7.741v10.28c0 4.275-3.465 7.741-7.741 7.741z" fill="#444"/></g></g><path d="m428.215 409.06-13.358 13.948 4.842 18.975h17.033l4.842-18.975z" fill="#3c87d0"/><path d="m419.699 441.983-7.529 38.328h32.09l-7.529-38.328z" fill="#3c87d0"/><path d="m402.153 391.685-22.031 11.97 31.082 23.167 17.011-17.762z" fill="#b3dafe"/><path d="m454.278 391.685 22.031 11.97-31.082 23.167-17.012-17.762z" fill="#b3dafe"/><path d="m491.118 287.657c-.291 0-.58.01-.869.022-4.978-29.765-30.854-52.452-62.033-52.452-3.489 0-6.906.299-10.24.845 26.463 4.336 47.372 25.172 51.793 51.607.289-.012.578-.022.869-.022 11.797 0 21.359 9.563 21.359 21.359s-9.563 21.36-21.359 21.36c-.291 0-.58-.01-.869-.022-4.421 26.435-25.33 47.272-51.793 51.607 3.334.546 6.751.845 10.24.845 31.179 0 57.055-22.686 62.033-52.452.289.012.578.022.869.022 11.797 0 21.359-9.563 21.359-21.36.001-11.796-9.562-21.359-21.359-21.359z" fill="#ffbfb1"/><path d="m454.278 391.685-10.51 7.007 9.134 4.963-17.425 12.987 9.75 10.18 31.082-23.167z" fill="#8ac9fe"/><path d="m416.769 287.679h89.345v-38.566c0-26.069-21.133-47.202-47.202-47.202h-51.166c-14.708 0-26.631 11.923-26.631 26.631v23.483c-.001 19.691 15.963 35.654 35.654 35.654z" fill="#c4573a"/><path d="m458.911 201.91h-29.258c26.069 0 47.202 21.133 47.202 47.202v38.566h29.258v-38.566c.001-26.068-21.132-47.202-47.202-47.202z" fill="#a74b30"/><g><path d="m391.813 343.002h-6.852c-3.242 0-5.87-2.628-5.87-5.87s2.628-5.87 5.87-5.87h6.852c3.242 0 5.87 2.628 5.87 5.87s-2.628 5.87-5.87 5.87z" fill="#ffb09e"/></g><g><path d="m471.77 343.002h-6.852c-3.242 0-5.87-2.628-5.87-5.87s2.628-5.87 5.87-5.87h6.852c3.242 0 5.87 2.628 5.87 5.87s-2.628 5.87-5.87 5.87z" fill="#ffb09e"/></g></g><g><path d="m192.941 414.475h-10.677c-19.94 0-36.104 16.164-36.104 36.104v61.917h216.556v-61.917c0-19.94-16.164-36.104-36.104-36.104z" fill="#c4e2ff"/><path d="m326.613 414.475h-23.407c19.94 0 36.104 16.164 36.104 36.104v61.917h23.407v-61.917c0-19.94-16.164-36.104-36.104-36.104z" fill="#b3dafe"/><path d="m334.749 266.147c-.373 0-.742.013-1.111.028-6.365-38.061-39.454-67.071-79.323-67.071-39.869 0-72.957 29.01-79.323 67.071-.369-.015-.739-.028-1.111-.028-15.084 0-27.313 12.228-27.313 27.312s12.228 27.313 27.313 27.313c.373 0 .742-.013 1.111-.028 6.365 38.061 39.454 67.071 79.323 67.071 39.869 0 72.957-29.009 79.323-67.071.369.015.739.028 1.111.028 15.084 0 27.313-12.228 27.313-27.313s-12.228-27.312-27.313-27.312z" fill="#ffcebf"/><path d="m220.989 344.947v54.222l33.326 22.217 33.327-22.217v-54.222z" fill="#ffcebf"/><g><g><path d="m215.055 313.613c-4.275 0-7.741-3.466-7.741-7.741v-13.146c0-4.275 3.466-7.741 7.741-7.741s7.741 3.466 7.741 7.741v13.146c0 4.275-3.466 7.741-7.741 7.741z" fill="#384949"/></g><g><path d="m293.577 313.613c-4.276 0-7.741-3.466-7.741-7.741v-13.146c0-4.275 3.465-7.741 7.741-7.741s7.741 3.466 7.741 7.741v13.146c0 4.275-3.466 7.741-7.741 7.741z" fill="#384949"/></g></g><g><path d="m254.315 356.017c-13.687 0-24.823-10.549-24.823-23.516 0-4.275 3.466-7.741 7.741-7.741s7.741 3.466 7.741 7.741c0 4.43 4.19 8.033 9.34 8.033 5.151 0 9.341-3.604 9.341-8.033 0-4.275 3.465-7.741 7.741-7.741s7.741 3.466 7.741 7.741c.002 12.967-11.134 23.516-24.822 23.516z" fill="#ffb09e"/></g><path d="m254.315 421.387-17.082 17.835 6.192 24.263h21.781l6.192-24.263z" fill="#3e5959"/><path d="m243.425 463.485-9.628 49.01h41.033l-9.628-49.01z" fill="#3e5959"/><path d="m220.989 399.169-28.171 15.306 39.745 29.623 21.752-22.711z" fill="#b3dafe"/><path d="m287.642 399.169 28.171 15.306-39.745 29.623-21.753-22.711z" fill="#b3dafe"/><path d="m239.406 156.669h-17.588c-33.963 0-61.495 27.532-61.495 61.494v48.012h59.579c19.005 0 34.412-15.406 34.412-34.411v-60.187c.001-8.234-6.674-14.908-14.908-14.908z" fill="#3e5959"/><path d="m334.749 266.147c-.373 0-.742.013-1.111.028-6.366-38.062-39.454-67.071-79.323-67.071-3.976 0-7.881.301-11.703.858 34.496 5.031 61.889 31.948 67.619 66.213.369-.015.739-.028 1.111-.028 15.084 0 27.313 12.228 27.313 27.312s-12.228 27.313-27.313 27.313c-.373 0-.742-.013-1.111-.028-5.731 34.265-33.123 61.182-67.619 66.213 3.822.557 7.727.858 11.703.858 39.869 0 72.957-29.009 79.323-67.071.369.015.739.028 1.111.028 15.084 0 27.313-12.228 27.313-27.313 0-15.084-12.228-27.312-27.313-27.312z" fill="#ffbfb1"/><path d="m287.642 399.169-10.51 7.007 15.274 8.299-26.087 19.444 9.749 10.179 39.745-29.623z" fill="#8ac9fe"/><g fill="#c4573a"><path d="m286.812 156.669h-17.588c-8.233 0-14.908 6.674-14.908 14.908v60.187c0 19.005 15.407 34.411 34.412 34.411h59.579v-48.012c0-33.962-27.532-61.494-61.495-61.494z"/><path d="m239.406 156.669h-17.588c-33.963 0-61.495 27.532-61.495 61.494v48.012h59.579c19.005 0 34.412-15.406 34.412-34.411v-60.187c.001-8.234-6.674-14.908-14.908-14.908z"/></g><path d="m286.812 156.669h-17.588c-.65 0-1.285.056-1.913.136 32.141 2.016 57.589 28.709 57.589 61.358v48.012h23.407v-48.012c0-33.962-27.532-61.494-61.495-61.494z" fill="#a74b30"/></g><g><path d="m346.052 78.52h-16.342c-1.685-5.981-4.065-11.67-7.043-16.979l11.563-11.563c2.955-2.955 2.955-7.745 0-10.7l-19.394-19.394c-2.955-2.955-7.745-2.955-10.7 0l-11.563 11.563c-5.309-2.978-10.998-5.358-16.979-7.043v-16.343c0-4.179-3.387-7.566-7.566-7.566h-27.428c-4.179 0-7.566 3.388-7.566 7.566v16.343c-5.981 1.685-11.67 4.065-16.979 7.043l-11.563-11.563c-2.955-2.955-7.745-2.955-10.7 0l-19.394 19.394c-2.955 2.955-2.955 7.745 0 10.7l11.563 11.563c-2.978 5.309-5.358 10.998-7.043 16.979h-16.343c-4.179 0-7.566 3.388-7.566 7.566v27.427c0 4.179 3.387 7.566 7.566 7.566h16.343c1.685 5.982 4.065 11.671 7.043 16.979l-11.563 11.563c-2.955 2.955-2.955 7.745 0 10.7l19.394 19.394c2.955 2.955 7.745 2.955 10.7 0l11.563-11.563c5.309 2.978 10.998 5.358 16.979 7.043v16.343c0 4.179 3.387 7.566 7.566 7.566h27.427c4.179 0 7.566-3.387 7.566-7.566v-16.343c5.981-1.685 11.67-4.065 16.979-7.043l11.563 11.563c2.955 2.955 7.745 2.955 10.7 0l19.394-19.394c2.955-2.955 2.955-7.745 0-10.7l-11.563-11.563c2.978-5.309 5.358-10.998 7.043-16.979h16.343c4.179 0 7.566-3.387 7.566-7.566v-27.427c0-4.178-3.387-7.566-7.566-7.566z" fill="#678d98"/><circle cx="254.314" cy="99.8" fill="#c8effe" r="33.753"/><g fill="#537983"><path d="m346.052 78.52h-16.342c-1.685-5.981-4.065-11.67-7.043-16.979l11.563-11.563c2.955-2.955 2.955-7.745 0-10.7l-19.394-19.394c-2.955-2.955-7.745-2.955-10.7 0l-6.353 6.353 13.04 13.04c2.955 2.955 2.955 7.746 0 10.7l-11.563 11.564c2.978 5.309 5.358 10.998 7.043 16.979h16.343c4.179 0 7.566 3.388 7.566 7.566v27.427c0 4.179-3.387 7.566-7.566 7.566h-16.343c-1.685 5.982-4.065 11.67-7.043 16.979l11.563 11.563c2.955 2.954 2.955 7.745 0 10.7l-13.04 13.041 6.353 6.354c2.955 2.955 7.745 2.955 10.7 0l19.394-19.394c2.955-2.955 2.955-7.745 0-10.7l-11.563-11.563c2.978-5.309 5.358-10.998 7.043-16.979h16.343c4.179 0 7.566-3.387 7.566-7.566v-27.428c-.001-4.178-3.388-7.566-7.567-7.566z"/><path d="m252.187 8.061v16.343c5.981 1.685 11.67 4.065 16.979 7.043l6.902-6.902c-.159-.046-.315-.097-.474-.141v-16.343c0-4.179-3.387-7.566-7.566-7.566h-23.407c4.178 0 7.566 3.387 7.566 7.566z"/></g><path d="m254.314 66.047c-2.512 0-4.958.285-7.315.807 15.105 3.352 26.438 16.846 26.438 32.945s-11.333 29.593-26.438 32.945c2.357.523 4.803.807 7.315.807 18.611 0 33.753-15.141 33.753-33.753s-15.142-33.751-33.753-33.751z" fill="#99e6fc"/></g><g><path d="m307.429 334.206h-9.037c-4.276 0-7.741-3.466-7.741-7.741s3.465-7.741 7.741-7.741h9.037c4.276 0 7.741 3.466 7.741 7.741s-3.466 7.741-7.741 7.741z" fill="#ffb09e"/></g><g><path d="m210.239 334.206h-9.037c-4.275 0-7.741-3.466-7.741-7.741s3.466-7.741 7.741-7.741h9.037c4.275 0 7.741 3.466 7.741 7.741s-3.465 7.741-7.741 7.741z" fill="#ffb09e"/></g></g></svg>